<?xml version="1.0" encoding="UTF-8" standalone="no"?>
<svg
   width="24"
   height="24"
   viewBox="0 0 24 24"
   fill="none"
   stroke="currentColor"
   stroke-width="2"
   stroke-linecap="round"
   stroke-linejoin="round"
   class="lucide lucide-cog-icon lucide-cog"
   version="1.1"
   id="svg14"
   sodipodi:docname="online-fix-source.svg"
   xml:space="preserve"
   inkscape:version="1.4 (86a8ad7, 2024-10-11)"
   xmlns:inkscape="http://www.inkscape.org/namespaces/inkscape"
   xmlns:sodipodi="http://sodipodi.sourceforge.net/DTD/sodipodi-0.dtd"
   xmlns="http://www.w3.org/2000/svg"
   xmlns:svg="http://www.w3.org/2000/svg"><defs
     id="defs14" /><sodipodi:namedview
     id="namedview14"
     pagecolor="#ffffff"
     bordercolor="#000000"
     borderopacity="0.25"
     inkscape:showpageshadow="2"
     inkscape:pageopacity="0.0"
     inkscape:pagecheckerboard="0"
     inkscape:deskcolor="#d1d1d1"
     inkscape:zoom="8.40625"
     inkscape:cx="-0.89219331"
     inkscape:cy="30.750929"
     inkscape:window-width="1920"
     inkscape:window-height="1009"
     inkscape:window-x="-8"
     inkscape:window-y="-8"
     inkscape:window-maximized="1"
     inkscape:current-layer="g16" /><path
     d="M12 20a8 8 0 1 0 0-16 8 8 0 0 0 0 16Z"
     id="path1" /><path
     d="M12 2v2"
     id="path3" /><path
     d="M12 22v-2"
     id="path4" /><path
     d="m17 20.66-1-1.73"
     id="path5" /><path
     d="M 7.936803,4.8573606 7,3.34"
     id="path6"
     sodipodi:nodetypes="cc" /><path
     d="m20.66 17-1.73-1"
     id="path7" /><path
     d="m3.34 7 1.73 1"
     id="path8" /><path
     d="M 20.304833,12 H 22"
     id="path9"
     sodipodi:nodetypes="cc" /><path
     d="M2 12h2"
     id="path10" /><path
     d="m20.66 7-1.73 1"
     id="path11" /><path
     d="m3.34 17 1.73-1"
     id="path12" /><path
     d="m17 3.34-1 1.73"
     id="path13" /><path
     d="M 8.0260223,19.1129 7,20.66"
     id="path14"
     sodipodi:nodetypes="cc" /><g
     style="fill:none;stroke:currentColor;stroke-width:2;stroke-linecap:round;stroke-linejoin:round"
     id="g16"
     transform="matrix(0.5,0,0,0.5,5.9575469,5.94003)"><path
       d="m 14.7,6.3 a 1,1 0 0 0 0,1.4 l 1.6,1.6 a 1,1 0 0 0 1.4,0 l 3.77,-3.77 a 6,6 0 0 1 -7.94,7.94 l -6.91,6.91 a 2.1213203,2.1213203 0 0 1 -3,-3 l 6.91,-6.91 a 6,6 0 0 1 7.94,-7.94 l -3.76,3.76 z"
       id="path1-0"
       style="fill:#000000" /></g></svg>
